<?xml version="1.0" encoding="UTF-8" standalone="no"?>
<!-- Created with Inkscape (http://www.inkscape.org/) -->

<svg
   width="210mm"
   height="297mm"
   viewBox="0 0 210 297"
   version="1.1"
   id="svg1"
   inkscape:version="1.4.2 (f4327f4, 2025-05-13)"
   sodipodi:docname="layout_example.svg"
   xmlns:inkscape="http://www.inkscape.org/namespaces/inkscape"
   xmlns:sodipodi="http://sodipodi.sourceforge.net/DTD/sodipodi-0.dtd"
   xmlns="http://www.w3.org/2000/svg"
   xmlns:svg="http://www.w3.org/2000/svg">
  <sodipodi:namedview
     id="namedview1"
     pagecolor="#ffffff"
     bordercolor="#000000"
     borderopacity="0.25"
     inkscape:showpageshadow="2"
     inkscape:pageopacity="0.0"
     inkscape:pagecheckerboard="0"
     inkscape:deskcolor="#d1d1d1"
     inkscape:document-units="mm"
     inkscape:zoom="1.4274173"
     inkscape:cx="485.84251"
     inkscape:cy="612.64495"
     inkscape:window-width="2560"
     inkscape:window-height="1351"
     inkscape:window-x="3191"
     inkscape:window-y="-9"
     inkscape:window-maximized="1"
     inkscape:current-layer="layer2" />
  <defs
     id="defs1" />
  <g
     inkscape:label="skeleton_def"
     inkscape:groupmode="layer"
     id="layer1">
    <path
       id="rect1"
       style="fill:none;stroke:#000000;stroke-width:0.264583;stroke-opacity:1"
       d="M 48.48903 64.934538 L 48.48903 99.654382 L 48.495231 99.654382 L 48.495231 166.45651 L 48.684884 166.45651 L 48.684884 199.49377 L 87.369861 199.49377 L 87.369861 166.45651 L 114.39974 166.45651 L 114.39974 199.56663 L 153.08471 199.56663 L 153.08471 166.45651 L 153.0873 166.45651 L 153.0873 98.825492 L 152.88679 98.825492 L 152.88679 65.009985 L 114.20233 65.009985 L 114.20233 98.825492 L 87.17349 98.825492 L 87.17349 64.934538 L 48.48903 64.934538 z " />
  </g>
  <g
     inkscape:groupmode="layer"
     id="layer2"
     inkscape:label="surface_ch">
    <path
       style="fill:none;stroke:#000000;stroke-width:0.264583;stroke-opacity:1"
       d="m 154.58865,107.97106 -26.41353,0.0927 0.92679,19.83332 -52.827058,-4.44859 4.448593,-52.827058 -24.93066,0.834109 -0.556075,53.846529 h -7.970397"
       id="path1"
       sodipodi:nodetypes="cccccccc" />
    <path
       style="fill:none;stroke-width:0.264583;stroke:#000000;stroke-opacity:1"
       d="m 78.640775,139.45631 31.980585,7.60194 31.45631,-9.17476 45.87378,8.65049"
       id="path5" />
    <path
       style="fill:#000000;stroke:none"
       d="m 76.996393,153.33499 32.075097,7.624 c -0.072,0.3 0.666,0.281 0.579,-0.015 l 30.917,-9.017 c 0.088,0.303 0.524,0.282 0.583,-0.028 l 45.225,8.528 0.556,-2.948 c -46.426,-8.33 -45.99,-8.351 -45.932,-8.662 l -0.582,0.029 c -31.496,9.31 -30.759,9.292 -30.845,8.996 l -0.58,0.015 -31.302297,-7.441 z"
       id="path2" />
  </g>
  <g
     inkscape:groupmode="layer"
     id="layer4"
     inkscape:label="fold_line_bottom">
    <path
       style="fill:none;fill-opacity:1;stroke:#b63131;stroke-width:0.264583;stroke-opacity:1"
       d="M 48.007743,98.425142 153.84721,97.776389"
       id="path3" />
    <path
       style="fill:none;fill-opacity:1;stroke:#b63131;stroke-width:0.264583;stroke-opacity:1"
       d="M 48.785761,167.40587 154.62523,166.75711"
       id="path3-5" />
  </g>
  <g
     inkscape:groupmode="layer"
     id="layer3"
     inkscape:label="via">
    <ellipse
       style="fill:#00ffff;stroke:none;stroke-width:0.104517;stroke-opacity:1"
       id="ellipse2"
       cx="76.413864"
       cy="122.84607"
       rx="2.5360277"
       ry="2.4433484" />
    <ellipse
       style="fill:#00ffff;stroke:none;stroke-width:0.104517;stroke-opacity:1"
       id="path2-1"
       cx="128.58536"
       cy="127.42236"
       rx="2.5360277"
       ry="2.4433484" />
  </g>
  <g
     inkscape:groupmode="layer"
     id="layer5"
     inkscape:label="junctions">
    <ellipse
       style="fill:#66ff00;fill-opacity:1;stroke:none;stroke-width:0.264583;stroke-opacity:1"
       id="path4"
       cx="153.47649"
       cy="108.15645"
       rx="4.3559151"
       ry="4.4485941" />
    <ellipse
       style="fill:#ff0000;fill-opacity:1;stroke:none;stroke-width:0.264583;stroke-opacity:1"
       id="path4-9"
       cx="47.968781"
       cy="124.89378"
       rx="4.3559151"
       ry="4.4485941" />
  </g>
</svg>
